<mxfile host="app.diagrams.net" modified="2023-09-26T21:45:09.161Z" agent="Mozilla/5.0 (Windows NT 10.0; Win64; x64) AppleWebKit/537.36 (KHTML, like Gecko) Chrome/117.0.0.0 Safari/537.36" etag="cqEBR1FWxZilo3b0hTzl" version="21.8.2" type="device">
  <diagram id="C5RBs43oDa-KdzZeNtuy" name="Page-1">
    <mxGraphModel dx="1235" dy="1863" grid="1" gridSize="10" guides="1" tooltips="1" connect="1" arrows="1" fold="1" page="1" pageScale="1" pageWidth="827" pageHeight="1169" math="0" shadow="0">
      <root>
        <mxCell id="WIyWlLk6GJQsqaUBKTNV-0" />
        <mxCell id="WIyWlLk6GJQsqaUBKTNV-1" parent="WIyWlLk6GJQsqaUBKTNV-0" />
        <mxCell id="6G757big6noDgc25PmHZ-0" value="start" style="rounded=1;whiteSpace=wrap;html=1;" vertex="1" parent="WIyWlLk6GJQsqaUBKTNV-1">
          <mxGeometry x="365" y="-170" width="70" height="30" as="geometry" />
        </mxCell>
        <mxCell id="6G757big6noDgc25PmHZ-1" value="finish" style="ellipse;whiteSpace=wrap;html=1;" vertex="1" parent="WIyWlLk6GJQsqaUBKTNV-1">
          <mxGeometry x="340" y="490" width="120" height="45" as="geometry" />
        </mxCell>
        <mxCell id="6G757big6noDgc25PmHZ-2" value="int n1,n2,n3&lt;br&gt;int sum=0" style="shape=parallelogram;perimeter=parallelogramPerimeter;whiteSpace=wrap;html=1;fixedSize=1;" vertex="1" parent="WIyWlLk6GJQsqaUBKTNV-1">
          <mxGeometry x="340" y="-110" width="120" height="60" as="geometry" />
        </mxCell>
        <mxCell id="6G757big6noDgc25PmHZ-7" value="true" style="edgeStyle=orthogonalEdgeStyle;rounded=0;orthogonalLoop=1;jettySize=auto;html=1;" edge="1" parent="WIyWlLk6GJQsqaUBKTNV-1" source="6G757big6noDgc25PmHZ-3">
          <mxGeometry relative="1" as="geometry">
            <mxPoint x="500" y="20" as="targetPoint" />
          </mxGeometry>
        </mxCell>
        <mxCell id="6G757big6noDgc25PmHZ-3" value="if n1%5==0" style="rhombus;whiteSpace=wrap;html=1;" vertex="1" parent="WIyWlLk6GJQsqaUBKTNV-1">
          <mxGeometry x="360" y="-20" width="80" height="80" as="geometry" />
        </mxCell>
        <mxCell id="6G757big6noDgc25PmHZ-19" value="false" style="edgeStyle=orthogonalEdgeStyle;rounded=0;orthogonalLoop=1;jettySize=auto;html=1;" edge="1" parent="WIyWlLk6GJQsqaUBKTNV-1" source="6G757big6noDgc25PmHZ-10">
          <mxGeometry relative="1" as="geometry">
            <mxPoint x="400" y="280" as="targetPoint" />
          </mxGeometry>
        </mxCell>
        <mxCell id="6G757big6noDgc25PmHZ-10" value="if num2%5==0" style="rhombus;whiteSpace=wrap;html=1;" vertex="1" parent="WIyWlLk6GJQsqaUBKTNV-1">
          <mxGeometry x="355" y="130" width="90" height="90" as="geometry" />
        </mxCell>
        <mxCell id="6G757big6noDgc25PmHZ-13" value="sum=sum+num1" style="rounded=0;whiteSpace=wrap;html=1;" vertex="1" parent="WIyWlLk6GJQsqaUBKTNV-1">
          <mxGeometry x="500" y="-10" width="100" height="60" as="geometry" />
        </mxCell>
        <mxCell id="6G757big6noDgc25PmHZ-16" value="false" style="edgeStyle=orthogonalEdgeStyle;rounded=0;orthogonalLoop=1;jettySize=auto;html=1;entryX=0.51;entryY=0.113;entryDx=0;entryDy=0;entryPerimeter=0;" edge="1" parent="WIyWlLk6GJQsqaUBKTNV-1" source="6G757big6noDgc25PmHZ-3" target="6G757big6noDgc25PmHZ-10">
          <mxGeometry relative="1" as="geometry" />
        </mxCell>
        <mxCell id="6G757big6noDgc25PmHZ-17" value="" style="endArrow=classic;html=1;rounded=0;exitX=0.368;exitY=1.089;exitDx=0;exitDy=0;exitPerimeter=0;entryX=1.098;entryY=0.407;entryDx=0;entryDy=0;entryPerimeter=0;" edge="1" parent="WIyWlLk6GJQsqaUBKTNV-1" source="6G757big6noDgc25PmHZ-13" target="6G757big6noDgc25PmHZ-10">
          <mxGeometry width="50" height="50" relative="1" as="geometry">
            <mxPoint x="490" y="130" as="sourcePoint" />
            <mxPoint x="540" y="80" as="targetPoint" />
          </mxGeometry>
        </mxCell>
        <mxCell id="6G757big6noDgc25PmHZ-34" value="true" style="edgeStyle=orthogonalEdgeStyle;rounded=0;orthogonalLoop=1;jettySize=auto;html=1;entryX=0;entryY=0.5;entryDx=0;entryDy=0;" edge="1" parent="WIyWlLk6GJQsqaUBKTNV-1" source="6G757big6noDgc25PmHZ-20" target="6G757big6noDgc25PmHZ-33">
          <mxGeometry relative="1" as="geometry" />
        </mxCell>
        <mxCell id="6G757big6noDgc25PmHZ-35" value="false" style="edgeStyle=orthogonalEdgeStyle;rounded=0;orthogonalLoop=1;jettySize=auto;html=1;" edge="1" parent="WIyWlLk6GJQsqaUBKTNV-1" source="6G757big6noDgc25PmHZ-20" target="6G757big6noDgc25PmHZ-36">
          <mxGeometry relative="1" as="geometry">
            <mxPoint x="400" y="450" as="targetPoint" />
          </mxGeometry>
        </mxCell>
        <mxCell id="6G757big6noDgc25PmHZ-20" value="if num3%5==0" style="rhombus;whiteSpace=wrap;html=1;" vertex="1" parent="WIyWlLk6GJQsqaUBKTNV-1">
          <mxGeometry x="360" y="290" width="80" height="80" as="geometry" />
        </mxCell>
        <mxCell id="6G757big6noDgc25PmHZ-27" value="" style="endArrow=classic;html=1;rounded=0;" edge="1" parent="WIyWlLk6GJQsqaUBKTNV-1" source="6G757big6noDgc25PmHZ-21">
          <mxGeometry width="50" height="50" relative="1" as="geometry">
            <mxPoint x="560" y="170" as="sourcePoint" />
            <mxPoint x="422.0689655172414" y="282.0689655172414" as="targetPoint" />
          </mxGeometry>
        </mxCell>
        <mxCell id="6G757big6noDgc25PmHZ-29" value="" style="endArrow=classic;html=1;rounded=0;" edge="1" parent="WIyWlLk6GJQsqaUBKTNV-1">
          <mxGeometry width="50" height="50" relative="1" as="geometry">
            <mxPoint x="399.40999999999997" y="-140" as="sourcePoint" />
            <mxPoint x="399.40999999999997" y="-110" as="targetPoint" />
            <Array as="points">
              <mxPoint x="399.40999999999997" y="-130" />
            </Array>
          </mxGeometry>
        </mxCell>
        <mxCell id="6G757big6noDgc25PmHZ-30" value="" style="endArrow=classic;html=1;rounded=0;" edge="1" parent="WIyWlLk6GJQsqaUBKTNV-1">
          <mxGeometry width="50" height="50" relative="1" as="geometry">
            <mxPoint x="399.40999999999997" y="-50" as="sourcePoint" />
            <mxPoint x="399.40999999999997" y="-20" as="targetPoint" />
            <Array as="points">
              <mxPoint x="399.40999999999997" y="-40" />
            </Array>
          </mxGeometry>
        </mxCell>
        <mxCell id="6G757big6noDgc25PmHZ-31" value="" style="endArrow=classic;html=1;rounded=0;" edge="1" parent="WIyWlLk6GJQsqaUBKTNV-1" target="6G757big6noDgc25PmHZ-21">
          <mxGeometry width="50" height="50" relative="1" as="geometry">
            <mxPoint x="560" y="170" as="sourcePoint" />
            <mxPoint x="422.0689655172414" y="282.0689655172414" as="targetPoint" />
          </mxGeometry>
        </mxCell>
        <mxCell id="6G757big6noDgc25PmHZ-21" value="sum=sum+num2" style="rounded=0;whiteSpace=wrap;html=1;" vertex="1" parent="WIyWlLk6GJQsqaUBKTNV-1">
          <mxGeometry x="500" y="140" width="105" height="50" as="geometry" />
        </mxCell>
        <mxCell id="6G757big6noDgc25PmHZ-33" value="sum=sum+num3" style="rounded=0;whiteSpace=wrap;html=1;" vertex="1" parent="WIyWlLk6GJQsqaUBKTNV-1">
          <mxGeometry x="500" y="305" width="107.5" height="50" as="geometry" />
        </mxCell>
        <mxCell id="6G757big6noDgc25PmHZ-38" style="edgeStyle=orthogonalEdgeStyle;rounded=0;orthogonalLoop=1;jettySize=auto;html=1;entryX=0.5;entryY=0;entryDx=0;entryDy=0;" edge="1" parent="WIyWlLk6GJQsqaUBKTNV-1" source="6G757big6noDgc25PmHZ-36" target="6G757big6noDgc25PmHZ-1">
          <mxGeometry relative="1" as="geometry" />
        </mxCell>
        <mxCell id="6G757big6noDgc25PmHZ-36" value="sum" style="shape=document;whiteSpace=wrap;html=1;boundedLbl=1;" vertex="1" parent="WIyWlLk6GJQsqaUBKTNV-1">
          <mxGeometry x="345" y="420" width="110" height="40" as="geometry" />
        </mxCell>
        <mxCell id="6G757big6noDgc25PmHZ-37" value="" style="endArrow=classic;html=1;rounded=0;" edge="1" parent="WIyWlLk6GJQsqaUBKTNV-1">
          <mxGeometry width="50" height="50" relative="1" as="geometry">
            <mxPoint x="550" y="360" as="sourcePoint" />
            <mxPoint x="470" y="430" as="targetPoint" />
          </mxGeometry>
        </mxCell>
      </root>
    </mxGraphModel>
  </diagram>
</mxfile>
